<?xml version="1.0" standalone="no"?>
<!DOCTYPE svg PUBLIC "-//W3C//DTD SVG 1.1//EN" "http://www.w3.org/Graphics/SVG/1.1/DTD/svg11.dtd" >
<svg xmlns="http://www.w3.org/2000/svg">
<metadata>
This is a custom SVG webfont generated by Font Squirrel.
Copyright   : HTF Knockout   19909 The Hoefler Type Foundry Inc httpwwwtypographycom
</metadata>
<defs>
<font id="KnockoutHTF26JuniorFlyweighRg" horiz-adv-x="178" >
<font-face units-per-em="2048" ascent="1638" descent="-410" />
<missing-glyph horiz-adv-x="186" />
<glyph unicode=" "  horiz-adv-x="186" />
<glyph unicode="&#x09;" horiz-adv-x="186" />
<glyph unicode="&#xa0;" horiz-adv-x="186" />
<glyph unicode="!" horiz-adv-x="231" d="M59 772v592h113v-592l-39 -448h-33zM63 0v184h105v-184h-105z" />
<glyph unicode="&#x22;" horiz-adv-x="280" d="M14 999l45 365h88l-75 -365h-58zM141 999l58 365h88l-86 -365h-60z" />
<glyph unicode="#" horiz-adv-x="587" d="M-2 420v65h147l45 394h-151v65h160l47 420h65l-47 -420h121l47 420h66l-47 -420h137v-65h-146l-45 -394h152v-65h-160l-47 -420h-66l48 420h-121l-47 -420h-66l47 420h-139zM211 485h121l45 394h-121z" />
<glyph unicode="$" horiz-adv-x="491" d="M49 215v184h113v-190q0 -51 22.5 -85t57.5 -34q88 0 88 119q0 174 -117 418q-154 328 -154 483q0 219 136 260v123h100v-117q68 -12 105.5 -74.5t37.5 -154.5v-199h-110v195q0 121 -70 121q-86 0 -86 -108.5t29.5 -198t103.5 -244.5q137 -293 137 -467q0 -217 -147 -256 v-121h-100v121q-70 16 -108 76.5t-38 148.5z" />
<glyph unicode="%" horiz-adv-x="665" d="M31 -8l563 1405l43 -29l-565 -1407zM37 856v369q0 72 31.5 113.5t83 41.5t84 -42t32.5 -113v-369q0 -72 -32.5 -115t-84 -43t-83 43t-31.5 115zM111 827q0 -20 12 -33.5t29 -13.5q41 0 41 47v426q0 47 -41 47q-16 0 -28.5 -13t-12.5 -34v-426zM399 135v369q0 72 32 115 t83 43t83 -43.5t32 -114.5v-369q0 -72 -32 -115t-83 -43t-83 43t-32 115zM473 106q0 -47 41 -47t41 47v426q0 47 -41 47.5t-41 -47.5v-426z" />
<glyph unicode="&#x26;" horiz-adv-x="612" d="M27 297q0 135 42 231.5t134 204.5q-59 199 -60 361q0 127 49.5 206.5t131.5 79.5q80 0 117.5 -75.5t37.5 -196.5q0 -195 -157 -410q23 -272 59 -411q82 223 82 399h96q-4 -117 -40 -274.5t-89 -249.5q10 -61 57 -62q45 0 45 62v114h72v-118q0 -174 -108 -174 q-82 0 -123 82q-53 -82 -143.5 -82t-146.5 87t-56 226zM145 322q0 -221 109 -222q41 0 61 45q-25 63 -51 198.5t-37 250.5q-82 -127 -82 -272zM254 1094q0 -72 35 -277q82 137 82 279q0 82 -12.5 117.5t-43.5 35.5q-61 1 -61 -155z" />
<glyph unicode="'" horiz-adv-x="225" d="M37 999l63 365h109l-105 -365h-67z" />
<glyph unicode="(" horiz-adv-x="360" d="M106 635q0 340 51.5 535.5t147.5 332.5l33 -24q-68 -109 -97.5 -289t-29.5 -555t29.5 -555t97.5 -289l-33 -22q-96 135 -147.5 329.5t-51.5 536.5z" />
<glyph unicode=")" horiz-adv-x="360" d="M23 -209q68 109 97.5 289t29.5 555t-30 555t-97 289l32 24q96 -137 147.5 -332.5t51.5 -535.5q0 -342 -51 -536.5t-148 -329.5z" />
<glyph unicode="*" horiz-adv-x="362" d="M18 1245l17 29q6 8 22 0q57 -35 107 -74q-10 72 -10 131q0 18 10 19h37q10 0 10 -19q0 -78 -10 -131q53 45 108 74q14 10 21 0l16 -29q4 -6 -10 -16q-80 -43 -119 -58q53 -20 117 -57q14 -8 12 -18l-16 -27q-6 -8 -23 0q-57 33 -108 74q10 -57 10 -129q0 -18 -10 -19h-33 q-10 0 -10 19q0 72 10 129q-55 -45 -109 -74q-14 -10 -20 0l-17 27q-4 8 11 18q76 41 119 57q-55 20 -119 58q-15 8 -13 16z" />
<glyph unicode="+" horiz-adv-x="450" d="M51 643v94h127v140h96v-140h125v-94h-125v-139h-96v139h-127z" />
<glyph unicode="," d="M39 0v193h100v-175q0 -154 -100 -153v35q47 0 47 100h-47z" />
<glyph unicode="-" horiz-adv-x="258" d="M10 600v107h238v-107h-238z" />
<glyph unicode="." d="M39 0v193h100v-193h-100z" />
<glyph unicode="/" horiz-adv-x="358" d="M-41 -131l356 1624h70l-354 -1624h-72z" />
<glyph unicode="0" horiz-adv-x="507" d="M59 213v938q0 102 55.5 165.5t139.5 63.5q86 0 140.5 -63.5t54.5 -165.5v-938q0 -102 -54.5 -165.5t-140.5 -63.5q-84 0 -139.5 63.5t-55.5 165.5zM178 180q0 -33 22.5 -56.5t53.5 -23.5t53.5 23.5t22.5 56.5v1004q0 31 -22.5 55.5t-53.5 24.5t-53.5 -25t-22.5 -55v-1004 z" />
<glyph unicode="1" horiz-adv-x="276" d="M80 0v1298q63 0 63 66h54v-1364h-117z" />
<glyph unicode="2" horiz-adv-x="417" d="M16 0v39q0 84 32 195.5t145 433.5q55 154 76.5 253t21.5 222q0 119 -80 119q-33 0 -55.5 -25t-22.5 -66v-229h-98v211q0 94 46 160.5t126 66.5q188 0 188 -280q0 -209 -112 -508q-143 -367 -144 -473h244v-119h-367z" />
<glyph unicode="3" horiz-adv-x="444" d="M43 186v199h98v-209q0 -70 66 -70q68 0 67 68v424q0 37 -34 37h-78v104h78q35 0 34 39v406q0 74 -67 73q-66 0 -66 -75v-205h-98v199q0 205 174 204q78 0 126 -58t48 -148v-379q0 -70 -78 -107q78 -37 78 -106v-392q0 -86 -49 -146t-125 -60q-86 0 -130 55t-44 147z" />
<glyph unicode="4" horiz-adv-x="421" d="M16 268v101l222 995h106v-989h62v-107h-62v-268h-111v268h-217zM121 375h112v563z" />
<glyph unicode="5" horiz-adv-x="438" d="M47 694l23 670h344q0 -45 -5.5 -71.5t-20.5 -37t-24.5 -11.5t-37.5 -1h-152l-14 -432q43 61 123 61q51 0 85.5 -45t34.5 -110v-527q0 -90 -51 -148t-135 -58q-78 0 -118 58t-40 144v195h95v-199q0 -33 18 -54.5t47 -21.5t48.5 20.5t19.5 53.5v533q0 70 -60 69 q-33 0 -51 -28.5t-18 -71.5z" />
<glyph unicode="6" horiz-adv-x="477" d="M55 197v968q0 94 51.5 154.5t133.5 60.5q80 0 126 -59t46 -145v-207h-97v213q0 35 -19.5 55t-54 20t-54 -20t-19.5 -53v-418q47 57 131 57q57 0 93 -42t36 -107v-477q0 -92 -53 -152.5t-135 -60.5q-84 0 -134.5 59.5t-50.5 153.5zM168 176q0 -31 19.5 -50.5t52 -19.5 t52 19.5t19.5 50.5v483q0 29 -19.5 48.5t-52 19.5t-52 -19.5t-19.5 -48.5v-483z" />
<glyph unicode="7" horiz-adv-x="415" d="M29 1245v119h368v-70q-113 -481 -158.5 -746t-60.5 -548h-127q43 508 228 1245h-250z" />
<glyph unicode="8" horiz-adv-x="481" d="M55 190v349q0 100 68 147q-68 47 -68 148v340q0 90 51.5 148t135.5 58q82 0 133 -58t51 -148v-340q0 -98 -66 -148q66 -49 66 -147v-349q0 -90 -51 -148t-133 -58q-84 0 -135.5 58t-51.5 148zM168 180q0 -33 20.5 -53.5t53 -20.5t53 20.5t20.5 53.5v393q0 31 -20.5 50.5 t-53 19.5t-53 -19.5t-20.5 -50.5v-393zM168 801q0 -31 20.5 -50.5t53 -19.5t53 19.5t20.5 50.5v383q0 33 -20.5 53t-53 20t-53 -20t-20.5 -53v-383z" />
<glyph unicode="9" horiz-adv-x="479" d="M55 186v201h99v-203q0 -35 21.5 -56.5t57.5 -21.5q78 0 78 74v410q-47 -57 -133 -58q-55 0 -89 42t-34 108v483q0 94 50.5 154.5t134.5 60.5q82 0 133 -60t51 -155v-968q0 -92 -52.5 -152.5t-135.5 -60.5q-80 0 -130.5 59t-50.5 143zM168 694q0 -27 19.5 -46t52 -19 t52 19.5t19.5 45.5v494q0 31 -19.5 50t-52 19t-52 -19t-19.5 -50v-494z" />
<glyph unicode=":" d="M39 0v193h100v-193h-100zM39 657v193h100v-193h-100z" />
<glyph unicode=";" d="M39 0v193h100v-175q0 -154 -100 -153v35q47 0 47 100h-47zM39 657v193h100v-193h-100z" />
<glyph unicode="&#x3c;" horiz-adv-x="698" d="M104 666v34l463 306v-123l-303 -199l303 -203v-123z" />
<glyph unicode="=" horiz-adv-x="370" d="M10 535v106h350v-106h-350zM10 741v105h350v-105h-350z" />
<glyph unicode="&#x3e;" horiz-adv-x="698" d="M131 360v123l303 199l-303 203v123l463 -308v-34z" />
<glyph unicode="?" horiz-adv-x="382" d="M20 961v194q0 106 43 165.5t125 59.5q180 0 181 -274q0 -197 -105 -461q-61 -150 -61 -299h-92q0 152 106 469q43 125 43 301q0 80 -17.5 110.5t-56.5 30.5q-74 0 -73 -96v-200h-93zM106 0v184h105v-184h-105z" />
<glyph unicode="@" horiz-adv-x="649" d="M33 457q0 225 91 367.5t218 142.5q135 0 210 -126t75 -294q0 -135 -48.5 -227.5t-127.5 -92.5q-90 0 -84 109q-14 -41 -41 -67.5t-56 -26.5q-41 0 -66.5 41t-25.5 116q0 113 47 203t113 90q53 0 55 -63l15 59h79l-57 -280q-25 -119 33 -119q47 0 71.5 72.5t24.5 191.5 q0 160 -61.5 254t-155.5 94q-100 0 -172 -127t-72 -317q0 -188 70 -298t174 -110t162 68l33 -43q-66 -90 -195 -90q-131 0 -220 123t-89 350zM256 406q0 -86 41 -87q37 0 57 103l27 141q-2 61 -31 62q-33 0 -63.5 -71.5t-30.5 -147.5z" />
<glyph unicode="A" horiz-adv-x="462" d="M18 0l154 1364h129l143 -1364h-129l-20 276h-135l-29 -276h-113zM172 397h113l-49 633z" />
<glyph unicode="B" horiz-adv-x="493" d="M59 0v1364h207q74 0 127 -48t53 -167v-285q0 -135 -86 -170q86 -37 86 -172v-307q0 -119 -53 -167t-127 -48h-207zM184 125h80q59 0 60 78v348q0 41 -19.5 65.5t-52.5 24.5h-68v-516zM184 750h68q33 0 52.5 24.5t19.5 65.5v321q0 78 -60 78h-80v-489z" />
<glyph unicode="C" horiz-adv-x="483" d="M49 217v930q0 102 57.5 167.5t141.5 65.5t137 -65.5t53 -167.5v-260h-106v284q0 35 -21.5 59.5t-56.5 24.5q-37 0 -58.5 -24.5t-21.5 -59.5v-978q0 -37 21.5 -60.5t58.5 -23.5t57.5 23.5t20.5 60.5v286h106v-262q0 -104 -53 -168.5t-137 -64.5t-141.5 65.5t-57.5 167.5z " />
<glyph unicode="D" horiz-adv-x="505" d="M59 0v1364h205q102 0 147.5 -64.5t45.5 -203.5v-828q0 -139 -45 -203.5t-148 -64.5h-205zM184 125h80q39 0 54.5 26.5t15.5 92.5v874q0 66 -15.5 93.5t-54.5 27.5h-80v-1114z" />
<glyph unicode="E" horiz-adv-x="425" d="M59 0v1364h332v-117h-209v-487h152v-117h-152v-526h209v-117h-332z" />
<glyph unicode="F" horiz-adv-x="405" d="M59 0v1364h320v-117h-195v-493h156v-115h-156v-639h-125z" />
<glyph unicode="G" horiz-adv-x="499" d="M49 217v930q0 100 59.5 166.5t143.5 66.5t137 -65.5t53 -167.5v-238h-110v262q0 35 -22.5 59.5t-57.5 24.5q-37 0 -58.5 -24.5t-21.5 -59.5v-978q0 -94 80 -94.5t80 94.5v362h-72v111h195v-666h-47l-39 70q-35 -86 -142 -86q-68 0 -123 59t-55 174z" />
<glyph unicode="H" horiz-adv-x="520" d="M59 0v1364h125v-633h154v633h123v-1364h-123v614h-154v-614h-125z" />
<glyph unicode="I" horiz-adv-x="243" d="M59 0v1364h125v-1364h-125z" />
<glyph unicode="J" horiz-adv-x="458" d="M31 199v344h119v-357q0 -78 67.5 -77.5t67.5 77.5v1178h123v-1165q0 -98 -51.5 -156.5t-135.5 -58.5t-137 59.5t-53 155.5z" />
<glyph unicode="K" horiz-adv-x="481" d="M59 0v1364h123v-737l162 737h117l-142 -590l146 -774h-125l-100 604l-58 -250v-354h-123z" />
<glyph unicode="L" horiz-adv-x="409" d="M59 0v1364h123v-1241h201v-123h-324z" />
<glyph unicode="M" horiz-adv-x="696" d="M59 0v1364h181l90 -840l22 -225l23 225l88 840h174v-1364h-119v1018l-20 -227l-97 -791h-110l-101 791l-22 227v-1018h-109z" />
<glyph unicode="N" horiz-adv-x="540" d="M55 0v1364h121l156 -713l37 -211v924h116v-1364h-92l-180 705l-41 206v-911h-117z" />
<glyph unicode="O" horiz-adv-x="505" d="M49 217v930q0 100 59.5 166.5t143.5 66.5t143.5 -66.5t59.5 -166.5v-930q0 -102 -59.5 -167.5t-143.5 -65.5t-143.5 65.5t-59.5 167.5zM172 193q0 -37 21.5 -60.5t58.5 -23.5t58.5 23.5t21.5 60.5v978q0 35 -22.5 59.5t-57.5 24.5q-37 0 -58.5 -24.5t-21.5 -59.5v-978z " />
<glyph unicode="P" horiz-adv-x="473" d="M59 0v1364h205q74 0 128 -48t54 -167v-342q0 -119 -54 -167t-128 -48h-82v-592h-123zM182 711h82q57 0 58 77v373q0 78 -58 78h-82v-528z" />
<glyph unicode="Q" horiz-adv-x="505" d="M49 217v930q0 100 59.5 166.5t143.5 66.5t143.5 -66.5t59.5 -166.5v-930q0 -72 -25 -117q23 -23 72 -22v-78q-27 -16 -66 -16q-47 0 -74 32q-47 -33 -110 -32q-84 0 -143.5 65.5t-59.5 167.5zM172 193q0 -37 21.5 -60.5t58.5 -23.5q31 0 47 14l-41 39l74 74v935 q0 35 -22.5 59.5t-57.5 24.5q-37 0 -58.5 -24.5t-21.5 -59.5v-978z" />
<glyph unicode="R" horiz-adv-x="501" d="M59 0v1364h207q74 0 127 -48t53 -167v-318q0 -133 -84 -172q88 -39 89 -170v-370q0 -53 26 -53v-76h-45q-55 0 -78.5 26.5t-23.5 100.5v397q0 41 -19.5 65.5t-52.5 24.5h-74v-604h-125zM184 723h70q31 0 50.5 24.5t19.5 65.5v348q0 78 -60 78h-80v-516z" />
<glyph unicode="S" horiz-adv-x="471" d="M33 215v184h119v-190q0 -51 22.5 -85t56.5 -34q88 0 88 119q0 166 -120 418q-156 322 -156 483q0 125 51 197.5t156 72.5q84 0 134 -64.5t50 -168.5v-199h-117v195q0 121 -69 121q-86 0 -86 -108.5t29.5 -198t103.5 -244.5q143 -305 143 -467q0 -143 -61.5 -202.5 t-140.5 -59.5q-94 0 -148.5 63.5t-54.5 167.5z" />
<glyph unicode="T" horiz-adv-x="423" d="M23 1243v121h378v-121h-122v-1243h-123v1243h-133z" />
<glyph unicode="U" horiz-adv-x="495" d="M51 217v1147h123v-1159q0 -96 76 -96q78 0 78 96v1159h116v-1147q0 -102 -56 -167.5t-140 -65.5q-86 0 -141.5 64.5t-55.5 168.5z" />
<glyph unicode="V" horiz-adv-x="462" d="M20 1364h130l77 -1036l101 1036h116l-151 -1364h-131z" />
<glyph unicode="W" horiz-adv-x="688" d="M20 1364h121l62 -965l102 965h92l84 -965l78 965h111l-146 -1364h-112l-76 858l-90 -858h-113z" />
<glyph unicode="X" horiz-adv-x="466" d="M6 0l146 672l-136 692h121l94 -541l103 541h115l-142 -657l137 -707h-122l-97 530l-102 -530h-117z" />
<glyph unicode="Y" horiz-adv-x="456" d="M4 1364h117l104 -639l107 639h117l-170 -829v-535h-123v535z" />
<glyph unicode="Z" horiz-adv-x="403" d="M12 0v72l252 1169h-237v123h360v-72l-254 -1175h236v-117h-357z" />
<glyph unicode="[" horiz-adv-x="299" d="M98 -203v1676h254v-84h-157v-1508h157v-84h-254z" />
<glyph unicode="\" horiz-adv-x="358" d="M-41 1493h72l354 -1624h-70z" />
<glyph unicode="]" horiz-adv-x="299" d="M-53 -119h157v1508h-157v84h254v-1676h-254v84z" />
<glyph unicode="^" horiz-adv-x="346" d="M8 1178v34q35 0 75 40t56 112h68q16 -72 56 -112t75 -40v-34q-31 -10 -57 -11q-92 0 -111 105q-20 -104 -111 -105q-20 1 -51 11z" />
<glyph unicode="_" horiz-adv-x="454" d="M0 0h455v-106h-455v106z" />
<glyph unicode="`" horiz-adv-x="225" d="M33 1280h108l64 -231h-68z" />
<glyph unicode="a" horiz-adv-x="397" d="M33 199v55q0 178 207 338v168q0 88 -52 88q-31 0 -41 -21.5t-10 -66.5v-113h-86v123q0 88 39 141.5t104.5 53.5t105.5 -53.5t40 -141.5v-664q0 -41 18 -40v-82h-20q-59 0 -84 71q-37 -72 -94 -71q-127 0 -127 215zM129 188q0 -49 11.5 -72.5t41.5 -23.5q27 0 42.5 35 t15.5 80v262q-51 -35 -81 -92.5t-30 -106.5v-82z" />
<glyph unicode="b" horiz-adv-x="415" d="M53 0v1364h101v-494q27 94 104 95q51 0 81 -44t30 -120v-654q0 -78 -30 -121.5t-81 -43.5q-78 0 -104 100l-7 -82h-94zM154 168q0 -76 57 -76q27 0 42 20.5t15 55.5v610q0 35 -15 55.5t-42 20.5q-57 0 -57 -76v-610z" />
<glyph unicode="c" horiz-adv-x="382" d="M47 199v551q0 94 44 154.5t110 60.5q70 0 108.5 -58.5t38.5 -156.5v-136h-84v156q0 78 -57 78q-27 0 -42 -21.5t-15 -56.5v-594q0 -74 57 -74t57 74v152h84v-129q0 -98 -38 -156.5t-109 -58.5q-68 0 -111 59.5t-43 155.5z" />
<glyph unicode="d" horiz-adv-x="415" d="M47 147v654q0 76 28.5 120t82.5 44q76 0 104 -84v483h100v-1364h-88l-12 82q-29 -100 -104 -100q-53 0 -82 43.5t-29 121.5zM147 168q0 -35 15.5 -55.5t42 -20.5t42 20.5t15.5 55.5v610q0 35 -15.5 55.5t-42 20.5t-42 -20.5t-15.5 -55.5v-610z" />
<glyph unicode="e" horiz-adv-x="393" d="M47 199v551q0 94 45 154.5t110.5 60.5t105.5 -59.5t40 -155.5v-297h-201v-267q0 -88 60 -88q51 0 51 88v146h90v-133q0 -96 -40 -155.5t-105.5 -59.5t-110.5 60.5t-45 154.5zM147 545h111v215q0 88 -51 88q-59 0 -60 -88v-215z" />
<glyph unicode="f" horiz-adv-x="243" d="M16 852v106h56v158q0 129 37.5 188.5t123.5 59.5h15v-107h-19q-61 0 -61 -77v-222h68v-106h-64v-852h-100v852h-56z" />
<glyph unicode="g" horiz-adv-x="397" d="M41 195q0 43 24.5 76.5t61.5 41.5q-80 31 -80 207v230q0 96 43 155.5t111 59.5q12 0 24.5 -3.5t20.5 -3.5q31 0 48 26t17 67h80q4 -49 4 -64q0 -35 -19.5 -56.5t-49.5 -21.5q-14 0 -29 6q55 -63 55 -165v-238q0 -96 -43 -161.5t-108 -65.5q-6 0 -14.5 2t-10.5 2 q-14 0 -28.5 -19.5t-14.5 -48.5q0 -70 70 -69q78 0 123 -50.5t45 -144.5v-115q0 -215 -170 -215q-158 0 -158 215v105q0 90 61 129q-25 12 -44 47t-19 72zM139 -45v-129q0 -37 17.5 -62.5t50.5 -25.5t51 25.5t18 62.5v129q0 39 -18 65.5t-51 26.5q-68 0 -68 -92zM143 477 q0 -76 58 -76q27 0 42 20.5t15 55.5v297q0 35 -15.5 55.5t-41.5 20.5q-57 0 -58 -76v-297z" />
<glyph unicode="h" horiz-adv-x="419" d="M53 0v1364h101v-494q29 94 106 95q51 0 81 -44t30 -120v-801h-103v778q0 35 -15 55.5t-42 20.5t-42 -20.5t-15 -55.5v-778h-101z" />
<glyph unicode="i" horiz-adv-x="206" d="M53 0v958h101v-958h-101zM59 1077v140h88v-140h-88z" />
<glyph unicode="j" horiz-adv-x="206" d="M-23 -254h13q63 0 63 78v1134h101v-1071q0 -129 -38 -188t-124 -59h-15v106zM59 1077v140h88v-140h-88z" />
<glyph unicode="k" horiz-adv-x="389" d="M53 0v1364h103v-920l118 517h103l-107 -426l105 -535h-103l-67 416l-49 -162v-254h-103z" />
<glyph unicode="l" horiz-adv-x="206" d="M53 0v1364h101v-1364h-101z" />
<glyph unicode="m" horiz-adv-x="606" d="M53 0v958h97l4 -92q35 98 110 99q59 0 82 -91q12 41 44 66t65 25q102 0 102 -154v-811h-100v764q0 82 -49 82q-20 0 -36 -21.5t-16 -60.5v-764h-102v772q0 82 -47 82q-23 0 -38 -21.5t-15 -60.5v-772h-101z" />
<glyph unicode="n" horiz-adv-x="421" d="M53 0v958h94l7 -94q27 100 106 101q51 0 81 -44t30 -120v-801h-101v778q0 35 -15 55.5t-42 20.5q-59 0 -59 -76v-778h-101z" />
<glyph unicode="o" horiz-adv-x="411" d="M47 199v551q0 94 46 154.5t113.5 60.5t113 -60.5t45.5 -154.5v-551q0 -94 -45.5 -154.5t-113 -60.5t-113.5 59.5t-46 155.5zM150 176q0 -74 57 -74t57 74v594q0 78 -57 78t-57 -78v-594z" />
<glyph unicode="p" horiz-adv-x="415" d="M53 -354v1312h88l13 -84q29 102 106 103q51 0 80 -44t29 -122v-653q0 -76 -29 -120t-80 -44q-78 0 -106 84v-432h-101zM154 180q0 -35 16 -56.5t43 -21.5q55 0 55 78v611q0 76 -55 75q-27 0 -43 -21.5t-16 -53.5v-611z" />
<glyph unicode="q" horiz-adv-x="415" d="M47 145v654q0 78 29.5 122t81.5 44q78 0 104 -103l6 84h94v-1313h-100v443q-27 -94 -104 -94q-51 0 -81 43.5t-30 119.5zM147 168q0 -78 57.5 -78t57.5 78v610q0 76 -57 76q-27 0 -42.5 -20.5t-15.5 -55.5v-610z" />
<glyph unicode="r" horiz-adv-x="303" d="M53 0v958h97l6 -94q37 100 135 101v-129q-76 0 -106.5 -26t-30.5 -83v-727h-101z" />
<glyph unicode="s" horiz-adv-x="368" d="M31 209v76h88v-107q0 -88 57 -88q70 0 70 88q0 76 -14.5 123t-69.5 129q-131 193 -131 313q0 102 45 162t110 60q150 0 150 -226v-90h-86v121q0 78 -60 78q-29 0 -46 -24.5t-17 -59.5q0 -100 100 -244q115 -162 115 -317q0 -98 -45 -158.5t-113 -60.5q-153 0 -153 225z " />
<glyph unicode="t" horiz-adv-x="241" d="M10 852v106h66v144l92 45v-189h61v-106h-61v-598q0 -168 14 -254h-90q-27 106 -26 254v598h-56z" />
<glyph unicode="u" horiz-adv-x="421" d="M49 147v811h101v-790q0 -33 16 -54.5t43 -21.5q57 0 57 76v790h103v-958h-97l-6 82q-27 -100 -104 -100q-51 0 -82 43.5t-31 121.5z" />
<glyph unicode="v" horiz-adv-x="360" d="M18 958h97l51 -548l14 -211l17 211l45 548h94l-105 -958h-106z" />
<glyph unicode="w" horiz-adv-x="561" d="M20 958h95l45 -524l16 -217l14 217l50 524h75l56 -524l16 -217l14 217l39 524h97l-101 -958h-100l-41 406l-16 206l-17 -206l-43 -406h-100z" />
<glyph unicode="x" horiz-adv-x="354" d="M2 0l119 477l-119 481h104l68 -342l70 342h98l-119 -481l119 -477h-106l-68 338l-66 -338h-100z" />
<glyph unicode="y" horiz-adv-x="360" d="M18 958h99l45 -538l12 -211l19 211l45 538h98l-125 -1071q-16 -135 -51 -191t-119 -56h-14v106h14q51 0 61 78l23 176z" />
<glyph unicode="z" horiz-adv-x="323" d="M14 0v47l176 805h-165v106h274v-47l-174 -802h164v-109h-275z" />
<glyph unicode="{" horiz-adv-x="372" d="M63 606v58h62q84 0 84 79q0 23 -60.5 191t-60.5 278q0 113 57.5 187t163.5 74h41v-58h-55q-55 0 -86 -58.5t-31 -148.5q0 -78 54.5 -229.5t54.5 -196.5q0 -63 -25.5 -96t-87.5 -51q61 -18 87 -51t26 -97q0 -45 -54.5 -196.5t-54.5 -229.5q0 -90 31 -148t86 -58h55v-58 h-41q-106 0 -163.5 74t-57.5 186q0 111 60.5 279t60.5 190q0 80 -84 80h-62z" />
<glyph unicode="|" horiz-adv-x="188" d="M59 -131v1624h70v-1624h-70z" />
<glyph unicode="}" horiz-adv-x="372" d="M23 -145h55q55 0 86 58t31 148q0 78 -54.5 229.5t-54.5 196.5q0 63 25.5 96t87.5 52q-61 18 -87 51t-26 96q0 45 54.5 196.5t54.5 229.5q0 90 -31 148.5t-86 58.5h-55v58h40q106 0 164 -74t58 -187q0 -111 -60.5 -278.5t-60.5 -190.5q0 -80 84 -79h61v-58h-61 q-84 0 -84 -80q0 -23 60.5 -190.5t60.5 -278.5q0 -113 -57.5 -186.5t-164.5 -73.5h-40v58z" />
<glyph unicode="~" horiz-adv-x="321" d="M8 653q0 106 76 107q29 0 78 -35t59 -35q25 0 25 27v43h53q14 -18 14 -53q0 -106 -75 -107q-27 0 -76 35t-62 35q-25 0 -24 -27v-43h-53q-15 22 -15 53z" />
<glyph d="M39 0v193h100v-175q0 -154 -100 -153v35q47 0 47 100h-47z" />
<glyph horiz-adv-x="311" d="M23 651v111h75v354q0 127 34 187.5t126 60.5h14v-94h-18q-39 0 -39 -80v-428h74v-111h-74v-438q0 -129 -34 -188.5t-128 -59.5h-12v94h16q23 0 32 17.5t9 62.5v512h-75z" />
<glyph horiz-adv-x="319" d="M39 0v193h100v-175q0 -154 -100 -153v35q47 0 47 100h-47zM180 0v193h101v-175q0 -154 -101 -153v35q47 0 47 100h-47z" />
<glyph unicode="&#x85;" horiz-adv-x="540" d="M39 0v193h100v-193h-100zM219 0v193h100v-193h-100zM399 0v193h101v-193h-101z" />
<glyph horiz-adv-x="450" d="M10 913v52q0 14 17 14q117 0 168 -14q-14 59 -15 381q0 18 15 18h59q16 0 16 -18q0 -322 -14 -381q51 14 168 14q16 0 16 -14v-52q0 -16 -16 -16q-117 0 -168 16q14 -59 14 -368q0 -575 -12 -674q0 -18 -14 -18h-37q-16 0 -17 18q-10 109 -10 674q0 309 15 368 q-55 -16 -168 -16q-17 0 -17 16z" />
<glyph horiz-adv-x="450" d="M10 252v51q0 16 17 16q102 0 168 -16q-14 59 -14.5 305t14.5 305q-55 -16 -168 -16q-16 0 -17 16v52q0 14 17 14q117 0 168 -14q-14 59 -15 381q0 18 15 18h61q14 0 14 -18q0 -322 -14 -381q51 14 168 14q16 0 16 -14v-52q0 -16 -16 -16q-117 0 -168 16q14 -59 14 -305 t-14 -305q61 16 168 16q16 0 16 -16v-51q0 -16 -16 -16q-111 0 -168 16q14 -59 14 -381q0 -18 -14 -18h-61q-14 0 -15 18q0 322 15 381q-57 -16 -168 -16q-17 0 -17 16z" />
<glyph horiz-adv-x="346" d="M8 1061v35q35 0 75 40t56 111h68q16 -72 56 -111.5t75 -39.5v-35q-31 -10 -57 -10q-92 0 -111 104q-20 -104 -111 -104q-20 0 -51 10z" />
<glyph horiz-adv-x="952" d="M31 -8l563 1405l43 -29l-565 -1407zM37 856v369q0 72 31.5 113.5t83 41.5t84 -42t32.5 -113v-369q0 -72 -32.5 -115t-84 -43t-83 43t-31.5 115zM111 827q0 -20 12 -33.5t29 -13.5q41 0 41 47v426q0 47 -41 47q-16 0 -28.5 -13t-12.5 -34v-426zM399 135v369q0 72 32 115 t83 43t83 -43.5t32 -114.5v-369q0 -72 -32 -115t-83 -43t-83 43t-32 115zM473 106q0 -47 41 -47t41 47v426q0 47 -41 47.5t-41 -47.5v-426zM692 135v369q0 72 32 115t83 43t83 -43.5t32 -114.5v-369q0 -72 -32 -115t-83 -43t-83 43t-32 115zM766 106q0 -47 41 -47t41 47v426 q0 47 -41 47.5t-41 -47.5v-426z" />
<glyph horiz-adv-x="471" />
<glyph horiz-adv-x="290" d="M23 344v105q162 109 188 344h51q0 -268 -129 -398q129 -129 129 -395h-51q-26 235 -188 344z" />
<glyph horiz-adv-x="688" d="M49 268v828q0 137 46 202.5t147 65.5h411v-117h-207v-487h152v-115h-152v-528h207v-117h-411q-100 0 -146.5 65.5t-46.5 202.5zM172 244q0 -63 16.5 -91t53.5 -28h82v1114h-82q-37 0 -53.5 -27.5t-16.5 -93.5v-874z" />
<glyph horiz-adv-x="403" />
<glyph d="M39 1036v174q0 154 100 154v-35q-47 0 -47 -100h47v-193h-100z" />
<glyph d="M39 1036v35q47 0 47 100h-47v193h100v-174q0 -154 -100 -154z" />
<glyph horiz-adv-x="319" d="M39 1036v174q0 154 100 154v-35q-47 0 -47 -100h47v-193h-100zM180 1036v174q0 154 101 154v-35q-47 0 -48 -100h48v-193h-101z" />
<glyph horiz-adv-x="319" d="M39 1036v35q47 0 47 100h-47v193h100v-174q0 -154 -100 -154zM180 1036v35q47 0 47 100h-47v193h101v-174q-1 -154 -101 -154z" />
<glyph horiz-adv-x="358" d="M20 682q0 74 45.5 117t115 43t113.5 -43t44 -117q0 -76 -44 -119t-114 -43q-72 0 -116 43t-44 119z" />
<glyph horiz-adv-x="819" d="M129 600v107h563v-107h-563z" />
<glyph horiz-adv-x="1228" d="M129 600v107h973v-107h-973z" />
<glyph horiz-adv-x="321" d="M8 1110q0 106 76 107q29 0 78 -35t59 -35q25 0 25 27v43h53q14 -18 14 -54q0 -106 -75 -106q-27 0 -76 34.5t-62 34.5q-25 0 -24 -26v-43h-53q-15 22 -15 53z" />
<glyph horiz-adv-x="618" d="M18 1315v49h207v-49h-73v-246h-60v246h-74zM274 1069v295h86l41 -164l19 -78l20 78l37 164h88v-295h-55v240l-21 -84l-45 -156h-51l-43 156l-20 84v-240h-56z" />
<glyph horiz-adv-x="368" />
<glyph horiz-adv-x="290" d="M29 0q0 266 129 395q-129 129 -129 398h51q27 -236 188 -344v-105q-162 -109 -188 -344h-51z" />
<glyph horiz-adv-x="604" d="M47 199v551q0 92 46 153.5t104 61.5q76 0 114 -84q35 84 111 84q57 0 97 -60.5t40 -154.5v-297h-201v-267q0 -88 58 -88q53 0 53 88v146h90v-133q0 -94 -40 -154.5t-97 -60.5q-72 0 -111 79q-39 -80 -114 -79q-57 0 -103.5 61.5t-46.5 153.5zM147 176q0 -72 57.5 -72 t57.5 72v594q0 80 -57 80q-27 0 -42.5 -22.5t-15.5 -57.5v-594zM358 545h111v215q0 90 -53 90q-57 0 -58 -90v-215z" />
<glyph horiz-adv-x="323" />
<glyph horiz-adv-x="456" d="M4 1364h117l104 -639l107 639h117l-170 -829v-535h-123v535zM109 1458v160h90v-160h-90zM256 1458v160h90v-160h-90z" />
<glyph unicode="&#xa1;" horiz-adv-x="231" d="M59 186l41 449h33l39 -449v-592h-113v592zM63 774v184h105v-184h-105z" />
<glyph unicode="&#xa2;" horiz-adv-x="413" d="M59 414v549q0 80 31 136t82 75v190h88v-193q100 -37 100 -208v-136h-84v156q0 80 -57 80q-27 0 -42 -22.5t-15 -57.5v-592q0 -74 57 -74t57 74v150h84v-127q0 -172 -100 -209v-205h-88v203q-51 16 -82 72.5t-31 138.5z" />
<glyph unicode="&#xa3;" horiz-adv-x="575" d="M-20 113q0 57 36.5 93t96.5 36q35 0 88 -31q16 43 29.5 135t13.5 162t-11 121h-141v112h123q-63 162 -63 344q0 133 44 214t130 81q168 0 168 -250v-163h-101v186q0 47 -14 69.5t-53 22.5q-61 0 -62 -115q0 -168 62 -389h145v-112h-125q2 -16 2 -72q0 -94 -18.5 -214 t-50.5 -193q47 -51 92 -52q57 0 57 72v229h96v-186q0 -229 -145 -229q-98 0 -156 82q-37 -82 -110 -82q-57 0 -95 34t-38 95zM66 119q0 -41 38 -41q47 0 54 49q-20 31 -54 31q-38 0 -38 -39z" />
<glyph unicode="&#xa4;" horiz-adv-x="458" d="M49 211v942q0 102 50.5 164.5t129.5 62.5q84 0 134.5 -60t50.5 -173v-213h-99v225q0 96 -79.5 96t-79.5 -96v-418h198v-112h-198v-424q0 -96 79.5 -96t79.5 96v225h99v-213q0 -113 -50.5 -173t-134.5 -60q-82 0 -131 61.5t-49 165.5z" />
<glyph unicode="&#xa5;" horiz-adv-x="460" d="M25 1364h118l88 -606l91 606h116q-137 -698 -139 -698h113v-105h-131v-131h131v-106h-131v-324h-115v324h-131v106h131v131h-131v105h112z" />
<glyph unicode="&#xa7;" horiz-adv-x="466" d="M23 506q0 182 143 334q-123 150 -123 288q0 111 52 181.5t151 70.5q90 0 138 -71.5t48 -180.5v-94h-108v109q0 111 -80 110q-88 0 -88 -112q0 -70 46 -149t100 -141.5t100.5 -151.5t46.5 -177q0 -109 -41 -199t-99 -143q123 -154 123 -295q0 -109 -51 -183.5t-141 -74.5 q-98 0 -153.5 65.5t-55.5 190.5v84h106v-106q0 -115 92 -115q43 0 69 36t26 93q0 70 -47.5 149.5t-103.5 142t-103 155t-47 184.5zM141 541q0 -86 22.5 -146.5t82.5 -128.5q39 39 63.5 99.5t24.5 111.5q0 88 -22.5 148.5t-82.5 128.5q-39 -39 -63.5 -100.5t-24.5 -112.5z " />
<glyph unicode="&#xa8;" horiz-adv-x="262" d="M12 1081v160h90v-160h-90zM160 1081v160h90v-160h-90z" />
<glyph unicode="&#xa9;" horiz-adv-x="970" d="M29 624.5q0 194.5 131 331t325.5 136.5t325.5 -136.5t131 -330.5q0 -193 -131 -329t-325.5 -136t-325.5 135t-131 329.5zM100 625q0 -168 108.5 -283t276.5 -115t276.5 115t108.5 283t-108.5 283.5t-276.5 115.5t-276.5 -115.5t-108.5 -283.5zM334 518v213q0 57 44 94 t109.5 37t107.5 -37t42 -94v-31h-70v31q0 29 -20.5 49.5t-57 20.5t-56 -20.5t-19.5 -49.5v-213q0 -29 19.5 -48t56 -19t57 19t20.5 48v33h70v-33q0 -55 -42 -93t-107.5 -38t-109.5 38t-44 93z" />
<glyph unicode="&#xaa;" horiz-adv-x="368" d="M29 801v33q0 154 209 253v121q0 76 -56 76q-31 0 -42 -18.5t-11 -59.5v-69h-82v75q0 76 36 122t101 46q70 0 106 -48t36 -128v-469q0 -33 26 -33v-75h-26q-59 0 -74 67q-37 -68 -102 -67q-57 0 -89 46t-32 128zM115 797q0 -80 53 -80q29 0 49.5 28.5t20.5 67.5v182 q-59 -25 -91 -65.5t-32 -85.5v-47z" />
<glyph unicode="&#xab;" horiz-adv-x="524" d="M23 344v105q162 109 188 344h51q0 -268 -129 -398q129 -129 129 -395h-51q-26 235 -188 344zM256 344v105q162 109 188 344h52q0 -268 -129 -398q129 -129 129 -395h-52q-26 235 -188 344z" />
<glyph unicode="&#xac;" horiz-adv-x="593" d="M106 561l119 119l-119 121l72 69l119 -120l119 120l71 -69l-122 -119l122 -119l-71 -71l-121 118l-119 -118z" />
<glyph unicode="&#xad;" horiz-adv-x="258" d="M10 600v107h238v-107h-238z" />
<glyph unicode="&#xae;" horiz-adv-x="970" d="M29 624.5q0 194.5 131 331t325.5 136.5t325.5 -136.5t131 -330.5q0 -193 -131 -329t-325.5 -136t-325.5 135t-131 329.5zM100 625q0 -168 108.5 -283t276.5 -115t276.5 115t108.5 283t-108.5 283.5t-276.5 115.5t-276.5 -115.5t-108.5 -283.5zM346 401v453h166 q123 0 123 -115v-26q0 -76 -70 -90q72 -8 72 -88v-62q0 -18 22 -18v-58h-20q-45 0 -62.5 15.5t-17.5 54.5v68q0 61 -55 61h-78v-195h-80zM426 649h74q55 0 55 60v32q0 51 -49 52h-80v-144z" />
<glyph unicode="&#xaf;" horiz-adv-x="262" d="M8 1108v90h246v-90h-246z" />
<glyph unicode="&#xb0;" horiz-adv-x="317" d="M10 1231q0 61 42 105t106 44q66 0 107.5 -44t41.5 -105q0 -59 -43 -104.5t-106.5 -45.5t-105.5 45.5t-42 104.5zM86 1231q0 -37 19.5 -59.5t52.5 -22.5q35 0 54 22.5t19 59.5q0 82 -73 82q-33 0 -52.5 -22.5t-19.5 -59.5z" />
<glyph unicode="&#xb1;" horiz-adv-x="1038" d="M49 0v983h940v-983h-940zM154 100h731v783h-731v-783z" />
<glyph unicode="&#xb2;" horiz-adv-x="417" d="M16 0v39q0 84 32 195.5t145 433.5q55 154 76.5 253t21.5 222q0 119 -80 119q-33 0 -55.5 -25t-22.5 -66v-229h-98v211q0 94 46 160.5t126 66.5q188 0 188 -280q0 -209 -112 -508q-143 -367 -144 -473h244v-119h-367z" />
<glyph unicode="&#xb3;" horiz-adv-x="444" d="M43 186v199h98v-209q0 -70 66 -70q68 0 67 68v424q0 37 -34 37h-78v104h78q35 0 34 39v406q0 74 -67 73q-66 0 -66 -75v-205h-98v199q0 205 174 204q78 0 126 -58t48 -148v-379q0 -70 -78 -107q78 -37 78 -106v-392q0 -86 -49 -146t-125 -60q-86 0 -130 55t-44 147z" />
<glyph unicode="&#xb4;" horiz-adv-x="225" d="M37 1049l63 231h109l-105 -231h-67z" />
<glyph unicode="&#xb6;" horiz-adv-x="716" d="M47 860v33q0 211 84 341t211 130h309v-1718h-82v1560h-90v-1560h-82v745h-55q-127 0 -211 130t-84 339zM252 686q0 -162 119 -162h26v682h-26q-53 0 -86 -57t-33 -154v-309z" />
<glyph unicode="&#xb7;" d="M39 584v192h100v-192h-100z" />
<glyph unicode="&#xb8;" d="M0 -141l96 166l31 -27l-64 -109q10 10 37 11q47 0 72 -29t25 -74q0 -43 -30 -74.5t-77 -31.5q-20 0 -39 12v33h27q45 0 45 55v10q0 57 -45 58q-27 0 -47 -25z" />
<glyph unicode="&#xb9;" horiz-adv-x="276" d="M80 0v1298q63 0 63 66h54v-1364h-117z" />
<glyph unicode="&#xba;" horiz-adv-x="356" d="M27 817v373q0 84 44 137t109.5 53t108.5 -53t43 -137v-373q0 -86 -43 -138t-108.5 -52t-109.5 52t-44 138zM119 795q0 -72 61 -72q59 0 60 72v415q0 33 -16.5 54.5t-43.5 21.5q-29 0 -45 -21.5t-16 -54.5v-415z" />
<glyph unicode="&#xbb;" horiz-adv-x="524" d="M23 0q0 266 129 395q-129 129 -129 398h51q27 -236 188 -344v-105q-162 -109 -188 -344h-51zM256 0q0 266 129 395q-129 129 -129 398h51q27 -236 189 -344v-105q-162 -109 -189 -344h-51z" />
<glyph unicode="&#xbf;" horiz-adv-x="350" d="M-10 -147q0 197 104 460q61 150 62 299h92q0 -152 -107 -469q-43 -125 -43 -301q0 -80 17.5 -110.5t56.5 -30.5q74 0 74 96v201h92v-195q0 -106 -43 -165.5t-125 -59.5q-180 1 -180 275zM147 774v184h105v-184h-105z" />
<glyph unicode="&#xc0;" horiz-adv-x="462" d="M18 0l154 1364h129l143 -1364h-129l-20 276h-135l-29 -276h-113zM96 1657h109l63 -232h-67zM172 397h113l-49 633z" />
<glyph unicode="&#xc1;" horiz-adv-x="462" d="M18 0l154 1364h129l143 -1364h-129l-20 276h-135l-29 -276h-113zM172 397h113l-49 633zM199 1425l63 232h109l-105 -232h-67z" />
<glyph unicode="&#xc2;" horiz-adv-x="462" d="M18 0l154 1364h129l143 -1364h-129l-20 276h-135l-29 -276h-113zM76 1438v35q35 0 74.5 39.5t56.5 111.5h67q16 -72 56.5 -111.5t75.5 -39.5v-35q-31 -10 -58 -11q-92 0 -110 105q-20 -104 -111 -105q-20 1 -51 11zM172 397h113l-49 633z" />
<glyph unicode="&#xc3;" horiz-adv-x="462" d="M18 0l154 1364h129l143 -1364h-129l-20 276h-135l-29 -276h-113zM78 1487q0 106 76 106q29 0 78 -34.5t59 -34.5q25 0 24 26v43h54q14 -18 14 -53q0 -106 -76 -106q-27 0 -76 34.5t-61 34.5q-25 0 -25 -26v-43h-53q-14 22 -14 53zM172 397h113l-49 633z" />
<glyph unicode="&#xc4;" horiz-adv-x="462" d="M18 0l154 1364h129l143 -1364h-129l-20 276h-135l-29 -276h-113zM117 1458v160h90v-160h-90zM172 397h113l-49 633zM264 1458v160h90v-160h-90z" />
<glyph unicode="&#xc5;" horiz-adv-x="462" d="M18 0l154 1364h10q-33 33 -32 82q0 43 25.5 74.5t62 31.5t61.5 -30.5t25 -75.5q0 -49 -33 -82h10l143 -1364h-129l-20 276h-135l-29 -276h-113zM172 397h113l-49 633zM195 1445.5q0 -63.5 43 -63.5t43 63.5t-43 63.5t-43 -63.5z" />
<glyph unicode="&#xc6;" horiz-adv-x="659" d="M18 0l211 1364h396v-117h-209v-487h151v-115h-151v-528h209v-117h-332v276h-123l-41 -276h-111zM186 397h107v740z" />
<glyph unicode="&#xc7;" horiz-adv-x="483" d="M49 217v930q0 102 57.5 167.5t141.5 65.5t137 -65.5t53 -167.5v-260h-106v284q0 35 -21.5 59.5t-56.5 24.5q-37 0 -58.5 -24.5t-21.5 -59.5v-978q0 -37 21.5 -60.5t58.5 -23.5t57.5 23.5t20.5 60.5v286h106v-262q0 -98 -49 -162.5t-129 -70.5l-55 -95q10 10 37 11 q47 0 71.5 -29t24.5 -74q0 -43 -29.5 -74.5t-77.5 -31.5q-20 0 -38 12v33h26q45 0 45 55v10q0 57 -45 58q-27 0 -47 -25l-31 25l74 127q-72 12 -119 75.5t-47 155.5z" />
<glyph unicode="&#xc8;" horiz-adv-x="425" d="M59 0v1364h332v-117h-209v-487h152v-117h-152v-526h209v-117h-332zM82 1657h108l64 -232h-68z" />
<glyph unicode="&#xc9;" horiz-adv-x="425" d="M59 0v1364h332v-117h-209v-487h152v-117h-152v-526h209v-117h-332zM172 1425l64 232h108l-104 -232h-68z" />
<glyph unicode="&#xca;" horiz-adv-x="425" d="M59 0v1364h332v-117h-209v-487h152v-117h-152v-526h209v-117h-332zM59 1438v35q35 0 75 39.5t56 111.5h68q16 -72 56 -111.5t75 -39.5v-35q-31 -10 -57 -11q-92 0 -111 105q-20 -104 -110 -105q-21 1 -52 11z" />
<glyph unicode="&#xcb;" horiz-adv-x="425" d="M59 0v1364h332v-117h-209v-487h152v-117h-152v-526h209v-117h-332zM106 1458v160h91v-160h-91zM254 1458v160h90v-160h-90z" />
<glyph unicode="&#xcc;" horiz-adv-x="243" d="M-16 1657h108l64 -232h-68zM59 0v1364h125v-1364h-125z" />
<glyph unicode="&#xcd;" horiz-adv-x="243" d="M59 0v1364h125v-1364h-125zM88 1425l64 232h108l-104 -232h-68z" />
<glyph unicode="&#xce;" horiz-adv-x="243" d="M-39 1438v35q35 0 75 39.5t56 111.5h68q16 -72 56 -111.5t75 -39.5v-35q-31 -10 -58 -11q-92 0 -110 105q-20 -104 -111 -105q-20 1 -51 11zM59 0v1364h125v-1364h-125z" />
<glyph unicode="&#xcf;" horiz-adv-x="243" d="M4 1458v160h90v-160h-90zM59 0v1364h125v-1364h-125zM152 1458v160h90v-160h-90z" />
<glyph unicode="&#xd0;" horiz-adv-x="518" d="M-16 625v106h88v633h204q100 0 146.5 -65.5t46.5 -202.5v-828q0 -137 -46 -202.5t-147 -65.5h-204v625h-88zM195 125h81q37 0 53.5 27.5t16.5 91.5v874q0 66 -16.5 93.5t-53.5 27.5h-81v-508h75v-106h-75v-500z" />
<glyph unicode="&#xd1;" horiz-adv-x="540" d="M55 0v1364h121l156 -713l37 -211v924h116v-1364h-92l-180 705l-41 206v-911h-117zM113 1487q0 106 75 106q29 0 78 -34.5t60 -34.5q25 0 24 26v43h53q14 -18 15 -53q0 -106 -76 -106q-27 0 -76 34.5t-61 34.5q-25 0 -25 -26v-43h-53q-14 22 -14 53z" />
<glyph unicode="&#xd2;" horiz-adv-x="505" d="M49 217v930q0 100 59.5 166.5t143.5 66.5t143.5 -66.5t59.5 -166.5v-930q0 -102 -59.5 -167.5t-143.5 -65.5t-143.5 65.5t-59.5 167.5zM111 1657h108l64 -232h-68zM172 193q0 -37 21.5 -60.5t58.5 -23.5t58.5 23.5t21.5 60.5v978q0 35 -22.5 59.5t-57.5 24.5 q-37 0 -58.5 -24.5t-21.5 -59.5v-978z" />
<glyph unicode="&#xd3;" horiz-adv-x="505" d="M49 217v930q0 100 59.5 166.5t143.5 66.5t143.5 -66.5t59.5 -166.5v-930q0 -102 -59.5 -167.5t-143.5 -65.5t-143.5 65.5t-59.5 167.5zM172 193q0 -37 21.5 -60.5t58.5 -23.5t58.5 23.5t21.5 60.5v978q0 35 -22.5 59.5t-57.5 24.5q-37 0 -58.5 -24.5t-21.5 -59.5v-978z M217 1425l64 232h108l-104 -232h-68z" />
<glyph unicode="&#xd4;" horiz-adv-x="505" d="M49 217v930q0 100 59.5 166.5t143.5 66.5t143.5 -66.5t59.5 -166.5v-930q0 -102 -59.5 -167.5t-143.5 -65.5t-143.5 65.5t-59.5 167.5zM90 1438v35q35 0 75 39.5t56 111.5h68q16 -72 56 -111.5t75 -39.5v-35q-31 -10 -58 -11q-92 0 -110 105q-20 -104 -111 -105 q-20 1 -51 11zM172 193q0 -37 21.5 -60.5t58.5 -23.5t58.5 23.5t21.5 60.5v978q0 35 -22.5 59.5t-57.5 24.5q-37 0 -58.5 -24.5t-21.5 -59.5v-978z" />
<glyph unicode="&#xd5;" horiz-adv-x="505" d="M49 217v930q0 100 59.5 166.5t143.5 66.5t143.5 -66.5t59.5 -166.5v-930q0 -102 -59.5 -167.5t-143.5 -65.5t-143.5 65.5t-59.5 167.5zM90 1487q0 106 76 106q29 0 78 -34.5t59 -34.5q25 0 25 26v43h53q14 -18 14 -53q0 -106 -76 -106q-27 0 -75.5 34.5t-61.5 34.5 q-25 0 -24 -26v-43h-54q-14 22 -14 53zM172 193q0 -37 21.5 -60.5t58.5 -23.5t58.5 23.5t21.5 60.5v978q0 35 -22.5 59.5t-57.5 24.5q-37 0 -58.5 -24.5t-21.5 -59.5v-978z" />
<glyph unicode="&#xd6;" horiz-adv-x="505" d="M49 217v930q0 100 59.5 166.5t143.5 66.5t143.5 -66.5t59.5 -166.5v-930q0 -102 -59.5 -167.5t-143.5 -65.5t-143.5 65.5t-59.5 167.5zM131 1458v160h90v-160h-90zM172 193q0 -37 21.5 -60.5t58.5 -23.5t58.5 23.5t21.5 60.5v978q0 35 -22.5 59.5t-57.5 24.5 q-37 0 -58.5 -24.5t-21.5 -59.5v-978zM279 1458v160h90v-160h-90z" />
<glyph unicode="&#xd7;" horiz-adv-x="593" d="M106 561l119 119l-119 121l72 69l119 -120l119 120l71 -69l-122 -119l122 -119l-71 -71l-121 118l-119 -118z" />
<glyph unicode="&#xd8;" horiz-adv-x="505" d="M49 217v930q0 102 59.5 167.5t143.5 65.5q59 0 110 -34l17 77l65 -16l-26 -123q37 -59 37 -137v-930q0 -102 -59.5 -167.5t-143.5 -65.5q-59 0 -111 34l-16 -77l-66 16l27 123q-37 59 -37 137zM172 475l158 715v4q-14 61 -78 61q-37 0 -58.5 -24.5t-21.5 -59.5v-696z M174 168q14 -59 78 -59q37 0 58.5 23.5t21.5 60.5v696l-158 -717v-4z" />
<glyph unicode="&#xd9;" horiz-adv-x="495" d="M51 217v1147h123v-1159q0 -96 76 -96q78 0 78 96v1159h116v-1147q0 -102 -56 -167.5t-140 -65.5q-86 0 -141.5 64.5t-55.5 168.5zM115 1657h108l64 -232h-68z" />
<glyph unicode="&#xda;" horiz-adv-x="495" d="M51 217v1147h123v-1159q0 -96 76 -96q78 0 78 96v1159h116v-1147q0 -102 -56 -167.5t-140 -65.5q-86 0 -141.5 64.5t-55.5 168.5zM215 1425l64 232h108l-104 -232h-68z" />
<glyph unicode="&#xdb;" horiz-adv-x="495" d="M51 217v1147h123v-1159q0 -96 76 -96q78 0 78 96v1159h116v-1147q0 -102 -56 -167.5t-140 -65.5q-86 0 -141.5 64.5t-55.5 168.5zM86 1438v35q35 0 75 39.5t56 111.5h68q16 -72 56 -111.5t75 -39.5v-35q-31 -10 -58 -11q-92 0 -110 105q-20 -104 -111 -105q-20 1 -51 11z " />
<glyph unicode="&#xdc;" horiz-adv-x="495" d="M51 217v1147h123v-1159q0 -96 76 -96q78 0 78 96v1159h116v-1147q0 -102 -56 -167.5t-140 -65.5q-86 0 -141.5 64.5t-55.5 168.5zM133 1458v160h90v-160h-90zM281 1458v160h90v-160h-90z" />
<glyph unicode="&#xdd;" horiz-adv-x="456" d="M4 1364h117l104 -639l107 639h117l-170 -829v-535h-123v535zM195 1425l63 232h109l-105 -232h-67z" />
<glyph unicode="&#xde;" horiz-adv-x="473" d="M59 0v1364h125v-260h82q74 0 127 -48t53 -167v-342q0 -119 -53 -167t-127 -48h-82v-332h-125zM184 451h82q57 0 58 77v371q0 80 -58 80h-82v-528z" />
<glyph unicode="&#xdf;" horiz-adv-x="428" d="M53 0v1130q0 233 162 234q164 0 164 -231v-291q0 -82 -66 -123q68 -43 68 -125v-465q0 -70 -36 -107.5t-95 -37.5q-29 0 -41 12v59q23 0 46.5 13.5t23.5 35.5v512q0 31 -18.5 49.5t-49.5 18.5v84q66 0 65 66v329q0 82 -61 82t-61 -82v-1163h-101z" />
<glyph unicode="&#xe0;" horiz-adv-x="397" d="M33 199v55q0 178 207 338v168q0 88 -52 88q-31 0 -41 -21.5t-10 -66.5v-113h-86v123q0 88 39 141.5t104.5 53.5t105.5 -53.5t40 -141.5v-664q0 -41 18 -40v-82h-20q-59 0 -84 71q-37 -72 -94 -71q-127 0 -127 215zM55 1280h109l63 -231h-67zM129 188q0 -49 11.5 -72.5 t41.5 -23.5q27 0 42.5 35t15.5 80v262q-51 -35 -81 -92.5t-30 -106.5v-82z" />
<glyph unicode="&#xe1;" horiz-adv-x="397" d="M33 199v55q0 178 207 338v168q0 88 -52 88q-31 0 -41 -21.5t-10 -66.5v-113h-86v123q0 88 39 141.5t104.5 53.5t105.5 -53.5t40 -141.5v-664q0 -41 18 -40v-82h-20q-59 0 -84 71q-37 -72 -94 -71q-127 0 -127 215zM129 188q0 -49 11.5 -72.5t41.5 -23.5q27 0 42.5 35 t15.5 80v262q-51 -35 -81 -92.5t-30 -106.5v-82zM160 1049l63 231h109l-105 -231h-67z" />
<glyph unicode="&#xe2;" horiz-adv-x="397" d="M33 199v55q0 178 207 338v168q0 88 -52 88q-31 0 -41 -21.5t-10 -66.5v-113h-86v123q0 88 39 141.5t104.5 53.5t105.5 -53.5t40 -141.5v-664q0 -41 18 -40v-82h-20q-59 0 -84 71q-37 -72 -94 -71q-127 0 -127 215zM33 1061v35q35 0 74.5 40t56.5 111h67 q16 -72 56.5 -111.5t74.5 -39.5v-35q-31 -10 -57 -10q-92 0 -110 104q-20 -104 -111 -104q-20 0 -51 10zM129 188q0 -49 11.5 -72.5t41.5 -23.5q27 0 42.5 35t15.5 80v262q-51 -35 -81 -92.5t-30 -106.5v-82z" />
<glyph unicode="&#xe3;" horiz-adv-x="397" d="M33 199v55q0 178 207 338v168q0 88 -52 88q-31 0 -41 -21.5t-10 -66.5v-113h-86v123q0 88 39 141.5t104.5 53.5t105.5 -53.5t40 -141.5v-664q0 -41 18 -40v-82h-20q-59 0 -84 71q-37 -72 -94 -71q-127 0 -127 215zM41 1110q0 106 76 107q29 0 78 -35t59 -35q25 0 25 27 v43h53q14 -18 14 -54q0 -106 -76 -106q-27 0 -76 34.5t-61 34.5q-25 0 -24 -26v-43h-54q-14 22 -14 53zM129 188q0 -49 11.5 -72.5t41.5 -23.5q27 0 42.5 35t15.5 80v262q-51 -35 -81 -92.5t-30 -106.5v-82z" />
<glyph unicode="&#xe4;" horiz-adv-x="397" d="M33 199v55q0 178 207 338v168q0 88 -52 88q-31 0 -41 -21.5t-10 -66.5v-113h-86v123q0 88 39 141.5t104.5 53.5t105.5 -53.5t40 -141.5v-664q0 -41 18 -40v-82h-20q-59 0 -84 71q-37 -72 -94 -71q-127 0 -127 215zM76 1081v160h90v-160h-90zM129 188q0 -49 11.5 -72.5 t41.5 -23.5q27 0 42.5 35t15.5 80v262q-51 -35 -81 -92.5t-30 -106.5v-82zM223 1081v160h90v-160h-90z" />
<glyph unicode="&#xe5;" horiz-adv-x="397" />
<glyph unicode="&#xe6;" horiz-adv-x="583" d="M33 199v55q0 180 209 338v168q0 90 -54 90q-51 0 -51 -90v-113h-86v123q0 88 37 141.5t96 53.5q66 0 105 -84q39 84 112 84q55 0 95.5 -61.5t40.5 -153.5v-297h-201v-267q0 -88 59 -88q31 0 41 21.5t10 66.5v146h91v-133q0 -94 -40 -154.5t-96 -60.5q-74 0 -112 79 q-39 -80 -115 -79q-141 0 -141 215zM129 188q0 -49 11.5 -72.5t43.5 -23.5q27 0 42.5 35t15.5 80v262q-51 -35 -82 -92.5t-31 -106.5v-82zM336 545h110v215q0 90 -51 90q-59 0 -59 -90v-215z" />
<glyph unicode="&#xe7;" horiz-adv-x="382" d="M47 199v551q0 94 44 154.5t110 60.5q70 0 108.5 -58.5t38.5 -156.5v-136h-84v156q0 78 -57 78q-27 0 -42 -21.5t-15 -56.5v-594q0 -74 57 -74t57 74v152h84v-129q0 -195 -127 -213l-55 -97q10 10 37 11q47 0 71.5 -29t24.5 -74q0 -43 -29.5 -74.5t-76.5 -31.5 q-20 0 -39 12v33h26q45 0 45 55v10q0 57 -45 58q-27 0 -47 -25l-31 25l74 127q-57 10 -93 68.5t-36 144.5z" />
<glyph unicode="&#xe8;" horiz-adv-x="393" d="M47 199v551q0 94 45 154.5t110.5 60.5t105.5 -59.5t40 -155.5v-297h-201v-267q0 -88 60 -88q51 0 51 88v146h90v-133q0 -96 -40 -155.5t-105.5 -59.5t-110.5 60.5t-45 154.5zM61 1280h109l63 -231h-67zM147 545h111v215q0 88 -51 88q-59 0 -60 -88v-215z" />
<glyph unicode="&#xe9;" horiz-adv-x="393" d="M47 199v551q0 94 45 154.5t110.5 60.5t105.5 -59.5t40 -155.5v-297h-201v-267q0 -88 60 -88q51 0 51 88v146h90v-133q0 -96 -40 -155.5t-105.5 -59.5t-110.5 60.5t-45 154.5zM147 545h111v215q0 88 -51 88q-59 0 -60 -88v-215zM166 1049l63 231h109l-105 -231h-67z" />
<glyph unicode="&#xea;" horiz-adv-x="393" d="M39 1061v35q35 0 75 40t56 111h68q16 -72 56 -111.5t75 -39.5v-35q-31 -10 -58 -10q-92 0 -110 104q-20 -104 -111 -104q-20 0 -51 10zM47 199v551q0 94 45 154.5t110.5 60.5t105.5 -59.5t40 -155.5v-297h-201v-267q0 -88 60 -88q51 0 51 88v146h90v-133 q0 -96 -40 -155.5t-105.5 -59.5t-110.5 60.5t-45 154.5zM147 545h111v215q0 88 -51 88q-59 0 -60 -88v-215z" />
<glyph unicode="&#xeb;" horiz-adv-x="393" d="M47 199v551q0 94 45 154.5t110.5 60.5t105.5 -59.5t40 -155.5v-297h-201v-267q0 -88 60 -88q51 0 51 88v146h90v-133q0 -96 -40 -155.5t-105.5 -59.5t-110.5 60.5t-45 154.5zM80 1081v160h90v-160h-90zM147 545h111v215q0 88 -51 88q-59 0 -60 -88v-215zM227 1081v160h90 v-160h-90z" />
<glyph unicode="&#xec;" horiz-adv-x="206" />
<glyph unicode="&#xed;" horiz-adv-x="206" />
<glyph unicode="&#xee;" horiz-adv-x="206" />
<glyph unicode="&#xef;" horiz-adv-x="206" />
<glyph unicode="&#xf0;" horiz-adv-x="411" d="M47 199v602q0 72 28.5 118t80.5 46q78 0 106 -84q0 170 -18 262l-74 -43l-33 80l82 47q-29 72 -80 131v6h111q27 -35 53 -88l49 31l33 -82l-53 -31q33 -113 33 -315v-680q0 -94 -46.5 -154.5t-114 -60.5t-112.5 60.5t-45 154.5zM147 176q0 -72 57.5 -72t57.5 72v602 q0 35 -15.5 55.5t-42 20.5t-42 -20.5t-15.5 -55.5v-602z" />
<glyph unicode="&#xf1;" horiz-adv-x="421" d="M49 1110q0 106 76 107q29 0 78 -35t59 -35q25 0 25 27v43h53q14 -18 14 -54q0 -106 -75 -106q-27 0 -76 34.5t-62 34.5q-25 0 -24 -26v-43h-54q-14 22 -14 53zM53 0v958h94l7 -94q27 100 106 101q51 0 81 -44t30 -120v-801h-101v778q0 35 -15 55.5t-42 20.5 q-59 0 -59 -76v-778h-101z" />
<glyph unicode="&#xf2;" horiz-adv-x="411" d="M47 199v551q0 94 46 154.5t113.5 60.5t113 -60.5t45.5 -154.5v-551q0 -94 -45.5 -154.5t-113 -60.5t-113.5 59.5t-46 155.5zM72 1280h108l64 -231h-68zM150 176q0 -74 57 -74t57 74v594q0 78 -57 78t-57 -78v-594z" />
<glyph unicode="&#xf3;" horiz-adv-x="411" d="M47 199v551q0 94 46 154.5t113.5 60.5t113 -60.5t45.5 -154.5v-551q0 -94 -45.5 -154.5t-113 -60.5t-113.5 59.5t-46 155.5zM150 176q0 -74 57 -74t57 74v594q0 78 -57 78t-57 -78v-594zM174 1049l64 231h108l-104 -231h-68z" />
<glyph unicode="&#xf4;" horiz-adv-x="411" d="M43 1061v35q35 0 75 40t56 111h68q16 -72 56 -111.5t75 -39.5v-35q-31 -10 -58 -10q-92 0 -110 104q-20 -104 -111 -104q-20 0 -51 10zM47 199v551q0 94 46 154.5t113.5 60.5t113 -60.5t45.5 -154.5v-551q0 -94 -45.5 -154.5t-113 -60.5t-113.5 59.5t-46 155.5zM150 176 q0 -74 57 -74t57 74v594q0 78 -57 78t-57 -78v-594z" />
<glyph unicode="&#xf5;" horiz-adv-x="411" d="M47 199v551q0 94 46 154.5t113.5 60.5t113 -60.5t45.5 -154.5v-551q0 -94 -45.5 -154.5t-113 -60.5t-113.5 59.5t-46 155.5zM49 1110q0 106 76 107q29 0 78 -35t59 -35q25 0 25 27v43h53q14 -18 14 -54q0 -106 -75 -106q-27 0 -76 34.5t-62 34.5q-25 0 -24 -26v-43h-54 q-14 22 -14 53zM150 176q0 -74 57 -74t57 74v594q0 78 -57 78t-57 -78v-594z" />
<glyph unicode="&#xf6;" horiz-adv-x="411" d="M47 199v551q0 94 46 154.5t113.5 60.5t113 -60.5t45.5 -154.5v-551q0 -94 -45.5 -154.5t-113 -60.5t-113.5 59.5t-46 155.5zM86 1081v160h90v-160h-90zM150 176q0 -74 57 -74t57 74v594q0 78 -57 78t-57 -78v-594zM233 1081v160h91v-160h-91z" />
<glyph unicode="&#xf8;" horiz-adv-x="411" d="M-10 -2l61 152q-4 33 -4 49v551q0 94 46 154.5t114 60.5q84 0 131 -93l43 107l43 -29q-29 -72 -64 -155q4 -29 5 -45v-551q0 -94 -45.5 -154.5t-112.5 -60.5q-88 0 -133 92l-43 -107zM147 176q0 -72 60 -72q57 0 57 72v375l-31 -72l-57 -143l-29 -74v-86zM147 393 l117 293v84q0 35 -15.5 57.5t-42 22.5t-43 -22.5t-16.5 -57.5v-377z" />
<glyph unicode="&#xf9;" horiz-adv-x="421" d="M49 147v811h101v-790q0 -33 16 -54.5t43 -21.5q57 0 57 76v790h103v-958h-97l-6 82q-27 -100 -104 -100q-51 0 -82 43.5t-31 121.5zM72 1280h108l64 -231h-68z" />
<glyph unicode="&#xfa;" horiz-adv-x="421" d="M49 147v811h101v-790q0 -33 16 -54.5t43 -21.5q57 0 57 76v790h103v-958h-97l-6 82q-27 -100 -104 -100q-51 0 -82 43.5t-31 121.5zM176 1049l64 231h108l-104 -231h-68z" />
<glyph unicode="&#xfb;" horiz-adv-x="421" d="M45 1061v35q35 0 75 40t56 111h68q16 -72 56 -111.5t75 -39.5v-35q-31 -10 -58 -10q-92 0 -110 104q-20 -104 -111 -104q-20 0 -51 10zM49 147v811h101v-790q0 -33 16 -54.5t43 -21.5q57 0 57 76v790h103v-958h-97l-6 82q-27 -100 -104 -100q-51 0 -82 43.5t-31 121.5z " />
<glyph unicode="&#xfc;" horiz-adv-x="421" d="M49 147v811h101v-790q0 -33 16 -54.5t43 -21.5q57 0 57 76v790h103v-958h-97l-6 82q-27 -100 -104 -100q-51 0 -82 43.5t-31 121.5zM86 1081v160h90v-160h-90zM233 1081v160h91v-160h-91z" />
<glyph unicode="&#xfd;" horiz-adv-x="360" d="M18 958h99l45 -538l12 -211l19 211l45 538h98l-125 -1071q-16 -135 -51 -191t-119 -56h-14v106h14q51 0 61 78l23 176zM147 1049l64 231h108l-104 -231h-68z" />
<glyph unicode="&#xfe;" horiz-adv-x="415" d="M53 -354v1718h101v-471q29 84 106 84q51 0 81 -44t30 -122v-653q0 -76 -30 -120t-81 -44q-78 0 -106 84v-432h-101zM154 180q0 -76 59 -76q25 0 41 20.5t16 55.5v611q0 33 -16 54t-41 21q-59 0 -59 -75v-611z" />
<glyph unicode="&#xff;" horiz-adv-x="360" d="M18 958h99l45 -538l12 -211l19 211l45 538h98l-125 -1071q-16 -135 -51 -191t-119 -56h-14v106h14q51 0 61 78l23 176zM63 1081v160h91v-160h-91zM211 1081v160h90v-160h-90z" />
<glyph unicode="&#x152;" horiz-adv-x="931" d="M565 0v1364h332v-117h-209v-487h152v-117h-152v-526h209v-117h-332zM49 217v930q0 100 59.5 166.5t143.5 66.5t143.5 -66.5t59.5 -166.5v-930q0 -102 -59.5 -167.5t-143.5 -65.5t-143.5 65.5t-59.5 167.5zM172 193q0 -37 21.5 -60.5t58.5 -23.5t58.5 23.5t21.5 60.5v978 q0 35 -22.5 59.5t-57.5 24.5q-37 0 -58.5 -24.5t-21.5 -59.5v-978z" />
<glyph unicode="&#x153;" horiz-adv-x="804" d="M459 199v551q0 94 45 154.5t110.5 60.5t105.5 -59.5t40 -155.5v-297h-201v-267q0 -88 60 -88q51 0 51 88v146h90v-133q0 -96 -40 -155.5t-105.5 -59.5t-110.5 60.5t-45 154.5zM559 545h111v215q0 88 -51 88q-59 0 -60 -88v-215zM47 199v551q0 94 46 154.5t113.5 60.5 t113 -60.5t45.5 -154.5v-551q0 -94 -45.5 -154.5t-113 -60.5t-113.5 59.5t-46 155.5zM150 176q0 -74 57 -74t57 74v594q0 78 -57 78t-57 -78v-594z" />
<glyph unicode="&#x178;" horiz-adv-x="456" d="M106 1503v160h90v-160h-90zM254 1503v160h90v-160h-90zM4 1364h117l104 -639l107 639h117l-170 -829v-535h-123v535z" />
<glyph unicode="&#x2c6;" horiz-adv-x="346" d="M8 1178v34q35 0 75 40t56 112h68q16 -72 56 -112t75 -40v-34q-31 -10 -57 -11q-92 0 -111 105q-20 -104 -111 -105q-20 1 -51 11z" />
<glyph unicode="&#x2dc;" horiz-adv-x="186" d="M-152 176q0 106 76 107q29 0 78 -35t59 -35q25 0 25 27v43h53q14 -18 14 -53q0 -106 -75 -107q-27 0 -76 35t-62 35q-25 0 -24 -27v-43h-53q-15 22 -15 53z" />
<glyph unicode="&#x2000;" horiz-adv-x="831" />
<glyph unicode="&#x2001;" horiz-adv-x="1662" />
<glyph unicode="&#x2002;" horiz-adv-x="831" />
<glyph unicode="&#x2003;" horiz-adv-x="1662" />
<glyph unicode="&#x2004;" horiz-adv-x="552" />
<glyph unicode="&#x2005;" horiz-adv-x="415" />
<glyph unicode="&#x2006;" horiz-adv-x="276" />
<glyph unicode="&#x2007;" horiz-adv-x="276" />
<glyph unicode="&#x2008;" horiz-adv-x="206" />
<glyph unicode="&#x2009;" horiz-adv-x="331" />
<glyph unicode="&#x200a;" horiz-adv-x="92" />
<glyph unicode="&#x2010;" horiz-adv-x="258" d="M10 600v107h238v-107h-238z" />
<glyph unicode="&#x2011;" horiz-adv-x="258" d="M10 600v107h238v-107h-238z" />
<glyph unicode="&#x2012;" horiz-adv-x="258" d="M10 600v107h238v-107h-238z" />
<glyph unicode="&#x2013;" horiz-adv-x="1024" d="M10 600v107h1004v-107h-1004z" />
<glyph unicode="&#x2014;" horiz-adv-x="2048" d="M10 600v107h2028v-107h-2028z" />
<glyph unicode="&#x2018;" horiz-adv-x="225" d="M33 1280h108l64 -231h-68z" />
<glyph unicode="&#x2019;" horiz-adv-x="225" d="M37 999l63 365h109l-105 -365h-67z" />
<glyph unicode="&#x201c;" horiz-adv-x="280" d="M14 999l45 365h88l-75 -365h-58zM141 999l58 365h88l-86 -365h-60z" />
<glyph unicode="&#x201d;" horiz-adv-x="280" d="M14 999l45 365h88l-75 -365h-58zM141 999l58 365h88l-86 -365h-60z" />
<glyph unicode="&#x2026;" horiz-adv-x="534" d="M395 0v193h100v-193h-100zM217 0v193h100v-193h-100zM39 0v193h100v-193h-100z" />
<glyph unicode="&#x202f;" horiz-adv-x="331" />
<glyph unicode="&#x2039;" horiz-adv-x="698" d="M104 666v34l463 306v-123l-303 -199l303 -203v-123z" />
<glyph unicode="&#x203a;" horiz-adv-x="698" d="M131 360v123l303 199l-303 203v123l463 -308v-34z" />
<glyph unicode="&#x205f;" horiz-adv-x="415" />
<glyph unicode="&#x2122;" horiz-adv-x="1120" d="M483 0v1364h181l90 -840l22 -225l23 225l88 840h174v-1364h-119v1018l-20 -227l-97 -791h-110l-101 791l-22 227v-1018h-109zM23 1243v121h378v-121h-122v-1243h-123v1243h-133z" />
<glyph unicode="&#xe000;" horiz-adv-x="960" d="M0 960h960v-960h-960v960z" />
<glyph unicode="&#xfb01;" horiz-adv-x="450" d="M297 0v958h101v-958h-101zM303 1077v140h88v-140h-88zM16 852v106h56v158q0 129 37.5 188.5t123.5 59.5h15v-107h-19q-61 0 -61 -77v-222h68v-106h-64v-852h-100v852h-56z" />
<glyph unicode="&#xfb02;" horiz-adv-x="450" d="M297 0v1364h101v-1364h-101zM16 852v106h56v158q0 129 37.5 188.5t123.5 59.5h15v-107h-19q-61 0 -61 -77v-222h68v-106h-64v-852h-100v852h-56z" />
<glyph unicode="&#xfb03;" horiz-adv-x="694" d="M540 0v958h101v-958h-101zM546 1077v140h88v-140h-88zM260 852v106h56v158q0 129 37.5 188.5t123.5 59.5h15v-107h-19q-61 0 -61 -77v-222h68v-106h-64v-852h-100v852h-56zM16 852v106h56v158q0 129 37.5 188.5t123.5 59.5h15v-107h-19q-61 0 -61 -77v-222h68v-106h-64 v-852h-100v852h-56z" />
<glyph unicode="&#xfb04;" horiz-adv-x="694" d="M540 0v1364h101v-1364h-101zM260 852v106h56v158q0 129 37.5 188.5t123.5 59.5h15v-107h-19q-61 0 -61 -77v-222h68v-106h-64v-852h-100v852h-56zM16 852v106h56v158q0 129 37.5 188.5t123.5 59.5h15v-107h-19q-61 0 -61 -77v-222h68v-106h-64v-852h-100v852h-56z" />
</font>
</defs>
</svg>
